<?xml version="1.0" encoding="utf-8"?>
<!-- Generator: Adobe Illustrator 16.0.0, SVG Export Plug-In . SVG Version: 6.00 Build 0)  -->
<!DOCTYPE svg PUBLIC "-//W3C//DTD SVG 1.1//EN" "http://www.w3.org/Graphics/SVG/1.1/DTD/svg11.dtd">
<svg version="1.1" id="Layer_1" xmlns="http://www.w3.org/2000/svg" xmlns:xlink="http://www.w3.org/1999/xlink" x="0px" y="0px"
	 width="595px" height="880px" viewBox="0.14 0.898 595 880" enable-background="new 0.14 0.898 595 880" xml:space="preserve">
<g>
	<path fill="#1F1F1F" d="M40.172,803.303v-105.01H28.546v116.058h11.626h44.742v-11.048H40.172z M174.56,776.053h-50.376
		l-18.09,38.298H93.201l54.784-115.975h2.95l54.084,115.975h-12.418L174.56,776.053z M169.357,765.006l-19.949-42.345
		l-20.003,42.345H169.357L169.357,765.006z M443.351,776.053h-50.378l-18.091,38.298H361.99l54.784-115.975h2.948l54.087,115.975
		h-12.418L443.351,776.053z M438.143,765.006l-19.945-42.345l-20.002,42.345H438.143L438.143,765.006z M566.734,814.351h-14.178
		l-41.615-53.936h-6.761v53.936h-11.628V698.293h9.573h2.055h14.073c10.073,0,18.533,0.072,25.377,1.879
		c6.846,1.809,14.333,7.231,17.689,13.171c3.357,5.942,4.648,13.043,3.618,21.694c-1.035,8.654-7.297,16.338-14.014,20.081
		c-6.423,3.584-14.302,5.157-25.817,5.285L566.734,814.351z M523.535,749.214c7.994,0,17.68,0.202,24.432-6.435
		c4.878-4.791,5.396-10.431,5.297-14.989c-0.084-4.061-1.482-7.866-4.499-11.386c-2.04-2.384-5.3-4.67-8.935-5.52
		c-6.551-1.526-12.519-1.39-21.577-1.39h-14.074v39.718L523.535,749.214L523.535,749.214z M349.042,814.351l-16.537-115.975h-1.733
		l-47.098,95.271l-47.346-95.271h-1.731l-16.539,115.975h10.995l11.294-83.946l41.734,83.946h2.939l41.452-83.379l11.215,83.379
		H349.042z"/>
	<polygon fill="#1F1F1F" points="294.896,477.516 294.896,528.986 428.531,528.986 428.531,571.047 261.88,571.047 261.88,67.446 
		115.28,67.446 115.28,622.516 166.752,622.516 166.752,118.919 210.411,118.919 210.411,622.516 210.537,622.516 479.999,622.516 
		479.999,477.516 	"/>
</g>
</svg>
