<svg width="1158" height="604" viewBox="0 0 1158 604" fill="none" xmlns="http://www.w3.org/2000/svg">
<g clip-path="url(#clip0_53_692)">
<path d="M418.232 182.549L326.572 4.86871C325.901 3.52562 324.446 2.63022 322.823 2.63022C321.2 2.63022 319.745 3.46966 319.074 4.81275L224.001 182.549C223.385 183.724 223.497 185.123 224.281 186.242C225.064 187.361 226.351 188.033 227.806 188.033H258.919C260.542 188.033 261.997 187.194 262.668 185.794L268.264 174.658H268.152L322.208 65.5317L359.812 145.11H359.924L379.005 185.739C379.677 187.138 381.188 188.033 382.81 188.033H414.483C415.882 188.033 417.225 187.361 417.952 186.298C418.736 185.235 418.848 183.836 418.232 182.661" fill="#262324"/>
<path d="M1154.14 226.423H555.889V301.412H1154.14V226.423Z" fill="#FFCB05"/>
<path d="M619.737 285.687L616.156 281.826C612.407 284.624 608.098 286.079 603.174 286.079C596.962 286.079 591.702 283.952 587.338 279.643C582.973 275.334 580.791 270.074 580.791 263.918C580.791 257.762 582.973 252.445 587.338 248.136C591.702 243.771 596.962 241.645 603.174 241.645C609.385 241.645 614.701 243.827 619.066 248.192C623.431 252.557 625.613 257.818 625.613 264.03C625.613 269.682 623.543 274.718 619.402 279.195L625.837 285.743H619.793M608.714 268.059L616.1 275.782C619.234 272.48 620.857 268.507 620.857 263.862C620.857 258.937 619.178 254.74 615.764 251.326C612.351 247.857 608.21 246.178 603.286 246.178C598.361 246.178 594.221 247.913 590.807 251.326C587.394 254.796 585.715 258.937 585.715 263.862C585.715 268.786 587.45 272.928 590.863 276.453C594.276 279.923 598.417 281.658 603.286 281.658C606.867 281.658 610.057 280.594 612.855 278.468L602.502 268.059H608.77H608.714Z" fill="#262324"/>
<path d="M652.249 258.545V273.431C652.249 276.117 652.585 278.076 653.201 279.307C654.096 280.986 655.775 281.826 658.293 281.826C660.811 281.826 662.49 280.986 663.329 279.307C664 278.076 664.28 276.117 664.28 273.431V258.545H668.869V273.991C668.869 282.049 665.343 286.079 658.293 286.079C651.242 286.079 647.661 282.049 647.661 273.991V258.545H652.249Z" fill="#262324"/>
<path d="M717.665 258.545V285.351H713.076V281.658C710.726 284.624 707.648 286.135 703.787 286.135C699.926 286.135 696.848 284.736 694.442 281.882C692.148 279.195 690.973 275.894 690.973 272.032C690.973 268.171 692.092 264.757 694.386 262.071C696.792 259.273 699.926 257.818 703.899 257.818C707.872 257.818 710.782 259.329 713.132 262.407V258.601H717.721M704.459 262.071C701.884 262.071 699.758 263.022 698.135 264.925C696.513 266.828 695.729 269.066 695.729 271.696C695.729 274.495 696.512 276.845 698.023 278.748C699.646 280.874 701.829 281.938 704.515 281.938C707.201 281.938 709.551 280.93 711.174 278.916C712.684 277.069 713.468 274.718 713.468 271.808C713.468 268.898 712.628 266.716 711.006 264.869C709.383 263.022 707.201 262.127 704.459 262.127" fill="#262324"/>
<path d="M746.315 258.545V261.455H746.427C747.378 260.168 748.218 259.329 748.889 258.825C749.84 258.098 750.959 257.762 752.358 257.762C753.645 257.762 754.988 258.154 756.443 259.049L754.261 263.246C753.086 262.407 752.135 262.015 751.519 262.015C748.05 262.015 746.259 265.317 746.259 271.92V285.295H741.67V258.489H746.259" fill="#262324"/>
<path d="M785.262 262.743V285.295H780.73V262.743H777.932V258.545H780.73V248.92H785.262V258.545H790.019V262.743H785.262Z" fill="#262324"/>
<path d="M815.591 281.098H834.058V285.295H806.358L825.664 262.743H809.94V258.545H834.841L815.591 281.098Z" fill="#262324"/>
<path d="M889.121 285.295V242.316H897.179C900.704 242.316 903.726 242.652 906.076 243.268C908.93 244.051 911.56 245.45 913.91 247.465C918.667 251.494 921.017 256.978 921.017 263.806C921.017 270.633 918.667 275.67 914.022 279.811C911.616 281.994 908.986 283.449 906.188 284.232C903.95 284.904 900.872 285.183 897.067 285.183H889.121M893.877 280.762H897.346C903.222 280.762 907.755 279.307 910.888 276.341C914.47 272.984 916.26 268.786 916.26 263.694C916.26 258.601 914.414 254.124 910.665 250.879C907.531 248.08 903.054 246.681 897.291 246.681H893.821V280.762H893.877Z" fill="#262324"/>
<path d="M967.015 272.872H946.03C946.086 275.39 946.926 277.517 948.548 279.251C950.171 280.986 952.242 281.826 954.76 281.826C958.117 281.826 960.859 279.979 962.874 276.285L966.735 278.468C964.049 283.504 959.908 286.023 954.368 286.023C950.451 286.023 947.261 284.68 944.799 281.993C942.449 279.419 941.274 276.117 941.274 272.2C941.274 268.059 942.393 264.645 944.631 262.015C946.982 259.161 950.227 257.706 954.256 257.706C958.285 257.706 961.699 259.217 963.993 262.295C966.175 265.093 967.183 268.619 966.959 272.872M946.198 269.01H962.202C961.867 267.052 960.971 265.373 959.516 264.03C958.061 262.687 956.327 262.015 954.368 262.015C952.41 262.015 950.563 262.687 948.996 264.086C947.429 265.429 946.478 267.108 946.254 269.066" fill="#262324"/>
<path d="M1003.89 262.743L1000.09 264.701C999.302 262.854 998.071 261.959 996.393 261.959C995.553 261.959 994.77 262.239 994.098 262.798C993.427 263.358 993.091 264.086 993.091 264.869C993.091 266.212 994.154 267.331 996.337 268.283C999.75 269.85 1001.76 270.801 1002.27 271.137C1004.45 272.648 1005.51 274.662 1005.51 277.237C1005.51 279.811 1004.62 281.826 1002.88 283.504C1001.15 285.183 998.967 286.023 996.449 286.023C994.21 286.023 992.252 285.407 990.573 284.232C988.894 283.057 987.719 281.378 986.992 279.251L991.021 277.572C992.308 280.427 994.098 281.826 996.449 281.826C997.68 281.826 998.687 281.434 999.526 280.706C1000.37 279.979 1000.76 278.972 1000.76 277.74C1000.76 276.062 999.75 274.718 997.68 273.711L991.86 270.969C989.79 269.626 988.726 267.723 988.726 265.317C988.726 263.078 989.51 261.287 991.077 259.832C992.643 258.433 994.49 257.706 996.728 257.706C998.239 257.706 999.638 258.154 1000.98 259.105C1002.27 260.056 1003.22 261.232 1003.84 262.687" fill="#262324"/>
<path d="M1031.09 245.17C1031.98 245.17 1032.71 245.506 1033.38 246.122C1034.05 246.793 1034.33 247.521 1034.33 248.416C1034.33 249.312 1034 250.095 1033.38 250.711C1032.77 251.326 1031.98 251.662 1031.09 251.662C1030.19 251.662 1029.41 251.326 1028.79 250.711C1028.18 250.095 1027.84 249.312 1027.84 248.416C1027.84 247.521 1028.18 246.793 1028.79 246.122C1029.41 245.45 1030.19 245.17 1031.09 245.17ZM1028.79 258.545H1033.38V285.351H1028.79V258.545Z" fill="#262324"/>
<path d="M1083.02 258.545V284.008C1083.02 286.75 1082.9 288.765 1082.62 290.052C1082.23 292.123 1081.45 293.969 1080.27 295.48C1077.81 298.614 1074.34 300.237 1069.87 300.237C1066.12 300.237 1062.98 299.118 1060.58 296.935C1058.06 294.697 1056.77 291.675 1056.72 287.926H1061.25C1061.25 290.388 1062.09 292.347 1063.65 293.802C1065.22 295.257 1067.29 296.04 1069.75 296.04C1075.52 296.04 1078.37 292.291 1078.37 284.792V281.602H1078.26C1075.97 284.568 1072.89 286.079 1068.97 286.079C1065.05 286.079 1062.03 284.68 1059.63 281.882C1057.33 279.195 1056.21 275.95 1056.21 272.088C1056.21 268.227 1057.39 264.813 1059.68 262.127C1062.09 259.273 1065.28 257.818 1069.14 257.818C1073 257.818 1075.97 259.329 1078.26 262.407H1078.37V258.601H1082.96M1069.64 262.071C1067.07 262.071 1064.94 263.022 1063.37 264.925C1061.75 266.828 1060.97 269.066 1060.97 271.696C1060.97 274.495 1061.75 276.845 1063.26 278.748C1064.89 280.874 1067.07 281.938 1069.75 281.938C1072.44 281.938 1074.79 280.93 1076.41 278.916C1077.92 277.069 1078.71 274.718 1078.71 271.808C1078.71 268.898 1077.87 266.716 1076.24 264.869C1074.62 263.022 1072.44 262.127 1069.7 262.127" fill="#262324"/>
<path d="M1112.34 258.545V261.791H1112.45C1114.41 259.105 1116.93 257.762 1120.12 257.762C1126.22 257.762 1129.24 261.679 1129.24 269.402V285.295H1124.65V270.241C1124.65 267.555 1124.37 265.597 1123.81 264.477C1122.97 262.854 1121.4 262.015 1119 262.015C1116.2 262.015 1114.3 263.19 1113.29 265.541C1112.67 267.052 1112.34 269.402 1112.34 272.648V285.351H1107.81V258.545H1112.34Z" fill="#262324"/>
<path d="M949.667 62.9575C949.667 27.4215 924.598 3.30177 889.96 3.30177H827.734V188.089H861.589V122.837H886.435L929.355 188.089H967.462L920.569 115.562C938.644 105.489 949.667 86.4616 949.667 62.9015M889.96 89.4836H861.589V36.5993H889.96C905.237 36.5993 915.029 47.2321 915.029 62.9015C915.029 78.5709 905.74 89.4836 889.96 89.4836Z" fill="#262324"/>
<path d="M641.338 75.3251C635.238 72.9747 630.314 71.072 626.621 69.6729C622.256 67.9941 618.786 66.651 618.283 66.4271C618.227 66.4271 618.115 66.3712 618.059 66.3152C616.1 65.5317 613.75 64.2446 611.344 62.7336C606.252 59.3759 603.846 55.6824 603.846 50.9816C603.846 40.6286 614.086 32.7938 627.628 32.7938C639.491 32.7938 644.639 35.9837 652.865 48.4633C653.648 49.6385 655.047 50.31 656.446 50.31C657.174 50.31 657.901 50.1421 658.573 49.7504L681.907 36.7672C683.866 35.7039 684.481 33.4094 683.362 31.5627C670.324 10.6328 651.634 0 627.908 0C610.393 0 595.62 4.86871 583.924 14.4942C572.117 24.2316 566.13 36.4874 566.13 51.0375C566.13 71.9674 580.231 88.0845 608.098 99.109L620.241 103.922C620.241 103.922 626.677 106.328 626.732 106.328C631.433 107.895 635.742 110.022 639.939 112.82C647.605 117.633 651.354 124.236 651.354 132.966C651.354 147.796 639.883 158.597 624.102 158.597C612.631 158.597 604.797 154.735 600.096 146.789C600.096 146.789 600.04 146.677 599.984 146.621C597.858 143.375 596.179 137.331 595.06 128.769C594.892 127.706 594.277 126.698 593.325 126.083C592.598 125.635 591.759 125.355 590.919 125.355C590.639 125.355 590.304 125.355 590.024 125.467L560.646 131.567C558.519 132.015 557.176 133.862 557.456 135.82C562.604 170.629 587.394 191.391 623.823 191.391C642.457 191.391 658.125 185.571 670.324 174.042C682.579 162.458 688.79 147.74 688.79 130.28C688.79 105.769 672.786 87.301 641.282 75.3251" fill="#262324"/>
<path d="M810.891 3.46966H693.602C691.308 3.46966 689.461 5.20449 689.461 7.27509V32.4581C689.461 34.5846 691.308 36.2635 693.602 36.2635H733.501V184.116C733.501 186.242 735.347 187.921 737.642 187.921H766.74C769.034 187.921 770.881 186.186 770.881 184.116V36.2635H810.779C813.073 36.2635 814.92 34.5287 814.92 32.4581V7.27509C814.92 5.14852 813.073 3.46966 810.779 3.46966" fill="#262324"/>
<path d="M1128.9 28.149C1109.6 9.45761 1086.04 0 1058.95 0C1031.87 0 1007.81 9.45761 988.223 28.149C968.917 46.8404 959.125 69.7849 959.125 96.3109C959.125 122.837 968.805 145.446 987.999 164.025C1007.3 182.157 1031.2 191.335 1058.95 191.335C1086.71 191.335 1109.48 181.933 1128.9 163.41C1148.21 144.718 1158 121.942 1158 95.7513C1158 69.561 1148.21 46.7844 1128.9 28.093M994.714 96.0311C994.714 78.403 1000.87 63.2373 1013.01 50.9816C1025.44 38.7258 1040.38 32.7939 1058.67 32.7939C1076.97 32.7939 1092.08 38.8937 1104.06 50.9816C1116.2 63.0134 1122.35 78.1232 1122.35 96.0311C1122.35 113.939 1116.09 128.097 1103.78 140.297C1091.35 152.553 1076.64 158.485 1058.67 158.485C1040.71 158.485 1025.55 152.441 1013.29 140.521C1000.76 128.153 994.714 113.603 994.714 95.9752" fill="#262324"/>
<path d="M538.878 3.46966H432.837C430.543 3.46966 428.696 5.20449 428.696 7.27509V184.116C428.696 186.242 430.543 187.921 432.837 187.921H538.878C541.172 187.921 543.019 186.186 543.019 184.116V158.933C543.019 156.806 541.172 155.127 538.878 155.127H466.132V103.922H536.584C538.878 103.922 540.725 102.187 540.725 100.116V74.9334C540.725 72.8068 538.878 71.128 536.584 71.128H466.132V36.3754H538.878C541.172 36.3754 543.019 34.6406 543.019 32.57V7.27509C543.019 5.14852 541.172 3.46966 538.878 3.46966Z" fill="#262324"/>
<path d="M216.334 148.076L220.419 169.957L444.364 48.6311L216.334 148.076Z" fill="#FFCB05"/>
<path d="M182.872 3.63754C182.536 2.01464 181.081 0.727508 179.29 0.503659C179.122 0.503659 178.954 0.503659 178.787 0.503659C177.164 0.503659 175.709 1.34309 174.981 2.74215L110.518 122.054L48.2919 2.74215C47.6205 1.34309 46.1096 0.447697 44.4868 0.447697C44.3189 0.447697 44.207 0.447697 44.0391 0.447697C42.2485 0.615583 40.7935 1.90271 40.4018 3.52562L0.0559416 183.388C-0.167891 184.507 0.1119 185.683 0.951274 186.578C1.73469 187.473 2.90981 187.977 4.14089 187.977H34.1345C36.149 187.977 37.8837 186.634 38.2195 184.843L56.5738 90.323L106.377 185.123C107.048 186.522 108.503 187.417 110.182 187.417C111.805 187.417 113.315 186.522 113.987 185.179L165.021 90.7707L181.305 184.787C181.64 186.634 183.375 188.033 185.39 188.033H215.048C216.279 188.033 217.454 187.529 218.237 186.69C219.021 185.85 219.356 184.675 219.132 183.556L182.872 3.63754Z" fill="#262324"/>
<path d="M350.075 403.143L351.585 403.591L351.753 404.43V405.102L352.201 406.109L351.753 406.557L351.921 407.788L351.082 408.963V410.194L350.242 410.362L350.41 412.153L349.179 413.608L346.829 419.708L345.318 425.808L344.647 427.711L344.479 427.263L343.975 430.117L343.807 429.949L344.255 434.034L343.36 435.265V436.217L343.807 437.28L343.36 437.448L342.968 437.056L343.136 438.287L342.968 438.959L342.52 439.91C342.52 439.91 342.129 441.197 341.849 443.1L341.681 443.268L343.024 444.611L342.856 445.618C342.184 445.842 341.625 446.346 341.065 447.129H341.905V447.409H342.856L344.591 447.969C345.878 447.297 346.941 446.962 347.78 446.962L349.683 447.129L351.026 446.962L351.194 447.409L352.705 447.129L352.873 447.577L354.607 446.906L355.894 447.353L355.726 447.521H356.398L358.524 446.234L359.364 446.514V446.01H362.05L366.135 447.073L366.974 448.249L367.142 447.913C368.429 448.193 369.716 448.64 371.059 449.256L371.227 449.704L372.57 450.767L371.227 454.516L370.835 455.076H370.164L369.996 455.748V457.762L369.66 457.315L369.492 458.21L368.205 458.882L367.813 460.784L366.526 461.903L366.806 462.351H366.358L366.526 462.519L365.855 462.967L365.687 463.806C364.792 464.142 363.896 465.317 362.945 467.556L362.497 467.276L362.665 467.724L361.77 467.891L361.602 468.787L361.154 468.619L360.986 469.458L359.755 470.522V470.969L359.308 471.809L358.636 471.641L358.916 472.033L357.573 472.368V472.928L355.838 474.271L356.006 474.719L355.558 475.278H354.999L354.719 474.887L354.327 475.558H353.824L354.104 476.174L353.432 476.454L352.984 477.685L352.593 477.965V478.356H351.697L351.25 479.196L350.858 479.028C350.466 480.091 349.907 480.875 349.347 481.21V481.602H348.899L349.067 482.274L348.508 481.882L348.228 482.498H347.556L347.165 484.009L346.493 483.841L346.046 484.736C344.87 485.352 344.255 485.799 344.031 486.023L344.255 486.639H343.807V487.086H343.136C342.52 487.59 342.073 487.87 341.793 487.926L341.625 487.758L340.786 488.653C340.002 489.157 339.331 489.661 338.883 490.164L337.708 489.941L334.798 492.291V492.739H334.126C332.895 493.97 332 494.809 331.273 495.089L331.105 495.537L330.657 495.705L330.265 496.768L329.818 496.376L328.81 497.216L328.643 496.936L328.139 498.447L327.3 497.16L325.565 496.88L324.725 497.16L323.998 496.488L324.893 494.977L325.901 494.529L326.908 494.809L328.307 493.074V491.731L328.978 491.06L329.426 489.325L330.489 488.262C330.881 487.87 331.217 487.478 331.385 487.142L332 485.575L332.895 485.016L332.224 484.568L333.119 483.673L332.951 482.386C332.951 481.043 333.231 479.811 333.791 478.748L333.623 478.3L335.134 476.789V475.222L334.686 473.991L335.134 472.704L335.805 467.891C335.302 467.164 335.022 466.604 334.966 466.213L335.805 465.149L335.525 463.974L335.805 462.967L335.525 462.071L335.358 459.049L335.525 453.621C336.029 453.061 336.309 452.39 336.421 451.718H337.092V450.711L337.54 450.207L337.092 450.039L337.54 449.592L337.372 449.2V447.857L337.092 447.465C337.484 446.57 338.044 445.674 338.603 444.835L337.932 443.94L338.211 443.268L338.827 442.876L339.107 443.044L339.498 442.149L338.491 441.477L338.659 439.407L339.331 438.567L338.883 437.224C339.331 435.601 339.722 434.594 340.002 434.146L339.722 432.635L340.73 430.005L340.394 428.718V427.655L340.73 427.207L340.058 426.312L340.226 424.465C340.618 423.793 340.953 422.842 341.289 421.555L340.897 420.715L339.722 420.1L339.554 418.813L337.652 418.98L336.812 420.1C335.861 421.779 334.798 422.618 333.903 423.905H333.511L332 424.577L329.594 424.185L328.754 424.577L327.803 423.961C327.523 423.793 326.908 423.01 326.013 421.779L327.188 421.946L327.356 420.044L333.007 415.455C333.791 415.287 334.294 415.119 334.518 415.007L337.372 413.104L338.211 412.937C338.883 412.321 339.219 411.817 339.275 411.426L340.618 410.586L342.296 408.348L345.374 405.158L346.829 404.99L347.109 404.095H347.948C348.899 403.591 349.627 403.311 350.019 403.255L350.354 402.975L350.075 403.143ZM355.223 455.132L354.831 455.3L353.656 455.132L352.984 455.3L353.264 455.58L352.593 455.748L352.425 456.139L352.145 455.58L351.921 455.971L350.914 455.58L349.179 456.139C348.899 455.916 348.452 455.748 347.836 455.58C346.717 456.251 345.99 456.587 345.654 456.643C345.542 457.259 345.206 457.65 344.647 457.93L344.479 457.65L343.975 458.322L343.807 457.93L343.639 458.098L342.8 457.259H342.352L342.129 456.811H341.289C341.009 457.986 340.562 459.049 339.946 460.001L341.009 462.015L339.946 466.324L340.618 467.668C340.841 468.171 341.009 469.011 341.009 470.242L340.841 472.089L341.009 473.264L339.834 474.103V480.091H339.443L339.89 483.169L339.722 483.841L339.89 484.736L340.953 484.288L342.464 482.386L344.479 481.043L347.668 477.237L348.06 476.566L348.899 476.286C349.571 475.334 349.907 474.719 350.075 474.383L350.746 473.991L352.817 471.641L352.984 470.69H354.775L354.495 469.458L355.503 468.731L356.006 467.276L357.685 466.436L359.699 462.967L360.147 462.519V462.071L360.819 460.057L359.979 457.315C357.965 456.699 356.79 456.027 356.342 455.3L355.167 455.132H355.223Z" fill="#262324"/>
<path d="M409.111 514.228L409.558 516.243C408.719 517.474 408.159 518.593 407.88 519.544C407.656 520.552 407.32 521.503 406.928 522.399C406.481 523.35 406.313 523.966 406.313 524.413L405.026 526.148L404.13 529.17L402.116 531.968L400.381 536.893L398.646 538.628L398.087 541.37C398.087 541.37 397.919 541.706 397.527 542.321C396.8 543.496 396.072 544 394.953 544L394.17 543.888L392.099 541.258C393.162 540.474 393.89 539.523 394.282 538.404C394.953 537.9 395.345 537.34 395.457 536.669C395.737 535.774 396.072 535.326 396.464 535.326H396.632C397.08 534.99 397.303 534.71 397.303 534.486V534.319L396.912 533.871C397.527 532.696 397.863 532.08 398.031 532.024L398.199 531.073C398.199 531.073 398.758 530.121 399.71 528.946C399.877 526.987 400.325 525.588 400.941 524.749C401.556 523.91 402.004 522.958 402.284 521.783H402.675L403.347 519.433C404.074 518.761 404.466 518.145 404.466 517.53V516.243L404.914 516.411C404.914 515.347 405.305 514.228 405.305 514.06V513.892L406.816 508.744L408.999 502.924L409.558 500.909L410.23 500.238C410.901 498.894 411.349 498.167 411.573 498.167L411.741 495.089L412.188 494.921V493.746L412.58 493.354V492.907C413.252 491.34 413.699 490.5 413.923 490.164L413.475 488.877C413.923 487.366 414.315 486.415 414.594 486.023H415.042L414.874 484.512L415.042 483.337L414.594 481.882L416.049 480.371V474.271L415.882 471.473L416.049 469.962L414.315 464.03L414.147 464.702L413.475 464.534L411.573 466.436H410.901L410.398 467.276H410.006V467.724L409.167 467.891L408.495 469.626L406.76 471.193C406.76 471.193 406.481 471.865 406.313 472.872L405.082 473.32L404.466 474.047C404.466 474.047 403.795 474.607 403.067 475.055L402.899 475.894L401.836 476.398L401.388 477.405L400.045 477.853L399.15 479.532C399.15 479.532 398.534 480.035 397.639 480.651L397.08 481.77C396.128 482.33 395.345 483.001 394.673 483.673L394.226 483.505L393.834 484.568H393.386L392.995 485.24H391.652L391.484 486.135C390.588 486.583 390.085 486.919 389.973 487.142L389.693 486.974L389.133 487.646C388.518 487.758 388.014 487.982 387.623 488.318L387.175 487.814L386.503 488.485L385.496 488.653L384.153 487.758H383.314L382.698 487.086L382.866 481.714L382.698 474.103V473.04C383.482 472.424 383.985 471.865 384.153 471.305L383.985 470.186C383.985 469.682 384.209 469.179 384.657 468.675L384.489 465.877L385.384 464.366L385.216 461.959C385.216 461.4 385.384 460.84 385.776 460.281L385.384 457.035L385.776 456.755L385.608 455.3L384.097 454.181C383.538 454.572 382.978 455.468 382.363 456.755L380.516 457.538C380.516 457.538 379.9 458.042 379.341 458.77C378.725 458.881 378.222 459.105 377.83 459.441L376.095 457.091L376.263 455.58L376.543 456.251L377.214 455.58H376.711L377.606 454.908C377.942 454.237 378.278 453.733 378.725 453.453C379.117 453.117 379.956 452.782 381.299 452.558L381.467 451.886V453.397L381.915 451.215L386.839 447.745L390.924 444.555L392.827 443.884L395.737 442.149H396.744L397.471 442.541C397.471 442.541 398.143 443.212 398.982 444.163L397.247 446.29L397.415 446.962L396.968 447.801L396.744 450.879L395.904 454.796L396.072 454.964L395.681 455.804L395.233 455.971L395.513 456.867L395.065 459.889L394.002 461.232L393.722 470.466L394.002 472.312L393.554 473.152L394.394 477.069H395.065L396.968 474.887L397.247 474.215L398.087 473.991L399.15 472.704L399.821 472.536L400.829 471.473L402.004 470.522L403.235 470.13L405.641 467.052L407.991 465.317L410.398 462.295H410.901L415.378 457.986L416.217 456.867L416.497 457.315V453.845L416.665 452.334L417.169 451.83H416.889L417.057 450.879C417.169 450.487 417.28 450.207 417.448 449.983L418.176 449.032H418.847L420.022 447.801C420.47 447.353 421.198 447.129 422.093 446.794H423.38L424.051 446.402L424.499 447.633C425.394 447.129 426.01 446.85 426.402 446.794L426.905 445.898L427.745 445.451V444.891L428.584 445.451L429.032 446.402C428.248 448.081 427.801 449.2 427.745 449.816C428.192 450.095 428.696 450.319 429.256 450.487V451.047L428.36 451.494C427.913 452.67 427.521 453.341 427.241 453.677L427.409 455.748L427.017 456.643L427.185 457.594L426.793 459.497L426.122 459.665L425.674 461.176L426.122 462.519C424.667 464.925 423.94 466.436 423.94 466.996V467.668L423.548 468.171C423.156 469.794 422.876 470.689 422.708 470.745V471.417L422.876 471.585L421.701 472.48L421.533 475.67L421.981 476.901L421.533 479.196L420.862 480.427V481.266L419.799 483.897L419.351 483.673L418.959 484.568L418.847 485.352C418.847 485.352 418.568 486.023 418.12 486.751L418.512 487.59L418.12 488.653L417.672 488.541L418.344 489.269L418.176 490.164V491.004L417.169 491.284L417.336 491.675C416.721 492.627 416.273 493.802 415.993 495.201L415.602 495.593L415.322 497.327C414.483 498.167 414.035 498.838 414.035 499.342L414.203 501.245L413.755 501.749H413.196L413.363 503.875L412.3 504.715L412.468 505.554C411.573 506.785 411.181 507.736 411.181 508.408V508.856L410.789 509.751V510.591L409.614 511.878L409.055 513.892L409.111 514.228Z" fill="#262324"/>
<path d="M849.39 388.985H706.081V519.321H849.39V388.985Z" fill="#FFCB05"/>
<path fill-rule="evenodd" clip-rule="evenodd" d="M601.215 471.641H578.72L573.348 485.352H559.974L585.323 418.645H595.116L619.794 485.352H606.252L601.215 471.641ZM597.69 461.288L589.576 437.728H589.352L582.19 461.288H597.634H597.69Z" fill="#262324"/>
<path fill-rule="evenodd" clip-rule="evenodd" d="M731.878 431.46V485.352H719.231V431.46H706.081V420.38H744.972V431.46H731.878Z" fill="#262324"/>
<path fill-rule="evenodd" clip-rule="evenodd" d="M781.737 471.641H759.185L753.813 485.352H740.439L765.789 418.645H775.581L800.203 485.352H786.717L781.681 471.641H781.737ZM778.211 461.288L770.153 437.728H769.929L762.767 461.288H778.211Z" fill="#262324"/>
<path fill-rule="evenodd" clip-rule="evenodd" d="M483.199 450.767H511.234V452.446C511.234 462.351 508.828 470.41 504.016 476.678C498.7 483.617 491.257 487.086 481.632 487.086C472.008 487.086 464.901 483.673 459.025 476.901C453.485 470.466 450.688 462.519 450.688 453.117C450.688 443.716 453.541 435.489 459.249 428.942C465.237 422.114 473.015 418.701 482.416 418.701C488.012 418.701 493.104 420.044 497.58 422.73C502.113 425.416 505.639 429.222 508.101 434.202L496.909 440.246C495.566 437.168 493.552 434.706 491.033 432.803C488.347 430.844 485.326 429.893 482.08 429.893C476.372 429.893 471.84 432.411 468.37 437.504C465.349 441.981 463.782 447.185 463.782 453.117C463.782 459.049 465.293 464.254 468.37 468.563C471.84 473.488 476.428 475.894 482.136 475.894C486.109 475.894 489.523 474.439 492.376 471.529C495.286 468.563 496.797 465.093 496.965 461.12H483.199V450.767Z" fill="#262324"/>
<path fill-rule="evenodd" clip-rule="evenodd" d="M540.501 457.93L558.855 485.352H543.467L527.687 459.105H527.575V485.352H514.872V420.38H532.051C546.544 420.38 553.763 426.871 553.763 439.91C553.763 444.331 552.644 448.193 550.406 451.495C547.999 455.132 544.698 457.259 540.557 457.93M527.631 430.733V450.263H529.197C537.143 450.263 541.116 446.962 541.116 440.302C541.116 436.665 539.997 434.034 537.815 432.579C535.968 431.348 533.114 430.733 529.365 430.733H527.631Z" fill="#262324"/>
<path d="M698.583 420.435H685.88V485.352H698.583V420.435Z" fill="#262324"/>
<path fill-rule="evenodd" clip-rule="evenodd" d="M621.36 485.352V418.645H630.482L664.728 464.086H664.84V420.379H677.598V486.695H668.421L634.175 441.253H634.063V485.352H621.36Z" fill="#262324"/>
<path fill-rule="evenodd" clip-rule="evenodd" d="M839.262 425.864L833.274 434.65C830.644 431.068 827.399 429.278 823.538 429.278C821.467 429.278 819.62 430.005 817.998 431.404C816.431 432.803 815.592 434.538 815.592 436.665C815.592 439.463 817.83 441.925 822.363 443.996C829.245 447.185 833.33 449.256 834.673 450.207C839.15 453.677 841.388 458.546 841.388 464.758C841.388 471.361 839.486 476.733 835.737 480.819C831.819 484.96 826.615 487.03 820.068 487.03C811.73 487.03 805.071 482.833 800.035 474.383L808.261 466.38C809.156 469.011 810.611 471.193 812.682 472.928C814.864 474.887 817.27 475.838 819.9 475.838C822.53 475.838 824.545 474.887 826.056 472.984C827.567 471.193 828.294 469.011 828.294 466.436C828.294 463.47 827.063 461.12 824.601 459.329C823.538 458.602 821.019 457.426 816.99 455.804C812.29 453.901 808.821 451.774 806.638 449.424C803.896 446.402 802.553 442.652 802.553 438.008C802.553 432.523 804.344 427.934 807.925 424.185C811.507 420.435 816.039 418.533 821.523 418.533C824.545 418.533 827.79 419.204 831.148 420.547C834.673 421.891 837.415 423.681 839.318 425.752" fill="#262324"/>
<path fill-rule="evenodd" clip-rule="evenodd" d="M821.299 475.67C822.866 475.67 824.209 476.23 825.328 477.405C826.447 478.524 827.007 479.867 827.007 481.434C827.007 483.001 826.447 484.4 825.328 485.52C824.209 486.639 822.866 487.198 821.299 487.198C819.732 487.198 818.277 486.639 817.158 485.52C816.039 484.4 815.479 483.057 815.479 481.434C815.479 479.811 816.039 478.524 817.158 477.405C818.277 476.286 819.676 475.67 821.299 475.67Z" fill="white"/>
<path fill-rule="evenodd" clip-rule="evenodd" d="M692.26 421.051C693.826 421.051 695.169 421.611 696.289 422.786C697.408 423.905 698.023 425.248 698.023 426.815C698.023 428.382 697.464 429.781 696.289 430.9C695.169 432.02 693.826 432.579 692.26 432.579C690.693 432.579 689.294 432.02 688.119 430.9C687 429.781 686.44 428.438 686.44 426.815C686.44 425.192 687 423.905 688.119 422.786C689.238 421.667 690.637 421.051 692.26 421.051Z" fill="white"/>
</g>
<defs>
<clipPath id="clip0_53_692">
<rect width="1158" height="604" fill="white"/>
</clipPath>
</defs>
</svg>
